<svg width="44" height="42" viewBox="0 0 44 42" fill="none" xmlns="http://www.w3.org/2000/svg">
<g filter="url(#filter0_d_43_233)">
<path fill-rule="evenodd" clip-rule="evenodd" d="M14.1074 16.79C17.7695 16.79 20.8419 14.2649 21.6785 10.8609L33.4745 10.8609V7.16799L21.6885 7.16799C20.8666 3.74321 17.7842 1.19785 14.1074 1.19785C10.5192 1.19785 7.49719 3.62194 6.58968 6.9218L2.45435 6.9218V10.8609H6.53628C7.37285 14.2649 10.4452 16.79 14.1074 16.79ZM14.1074 12.892C16.2602 12.892 18.0054 11.1467 18.0054 8.99392C18.0054 6.84109 16.2602 5.09588 14.1074 5.09588C11.9546 5.09588 10.2093 6.84109 10.2093 8.99392C10.2093 11.1467 11.9546 12.892 14.1074 12.892Z" fill="url(#paint0_linear_43_233)"/>
<path d="M41.3936 10.9429L37.4956 10.9429V7.0449H41.3936V10.9429Z" fill="url(#paint1_linear_43_233)"/>
<path fill-rule="evenodd" clip-rule="evenodd" d="M29.6996 36.2802C33.3764 36.2802 36.4587 33.7348 37.2806 30.3101H41.3526V26.6172H37.2707C36.4341 23.2131 33.3617 20.688 29.6996 20.688C26.0374 20.688 22.965 23.2131 22.1284 26.6172H2.45435V30.3101H22.1185C22.9404 33.7348 26.0227 36.2802 29.6996 36.2802ZM29.6996 32.3821C31.8524 32.3821 33.5976 30.6369 33.5976 28.4841C33.5976 26.3313 31.8524 24.5861 29.6996 24.5861C27.5467 24.5861 25.8015 26.3313 25.8015 28.4841C25.8015 30.6369 27.5467 32.3821 29.6996 32.3821Z" fill="url(#paint2_linear_43_233)"/>
</g>
<defs>
<filter id="filter0_d_43_233" x="0.536474" y="0" width="42.9271" height="42.7794" filterUnits="userSpaceOnUse" color-interpolation-filters="sRGB">
<feFlood flood-opacity="0" result="BackgroundImageFix"/>
<feColorMatrix in="SourceAlpha" type="matrix" values="0 0 0 0 0 0 0 0 0 0 0 0 0 0 0 0 0 0 127 0" result="hardAlpha"/>
<feOffset dy="1.46353"/>
<feGaussianBlur stdDeviation="0.731763"/>
<feComposite in2="hardAlpha" operator="out"/>
<feColorMatrix type="matrix" values="0 0 0 0 0 0 0 0 0 0 0 0 0 0 0 0 0 0 0.25 0"/>
<feBlend mode="normal" in="SourceGraphic"  result="shape"/>
</filter>
<linearGradient id="paint0_linear_43_233" x1="2.29968" y1="36.386" x2="48.189" y2="14.5974" gradientUnits="userSpaceOnUse">
<stop stop-color="#737373"/>
<stop offset="1" stop-color="#737373" stop-opacity="0.83"/>
</linearGradient>
<linearGradient id="paint1_linear_43_233" x1="2.29968" y1="36.386" x2="48.189" y2="14.5974" gradientUnits="userSpaceOnUse">
<stop stop-color="#737373"/>
<stop offset="1" stop-color="#737373" stop-opacity="0.83"/>
</linearGradient>
<linearGradient id="paint2_linear_43_233" x1="2.29968" y1="36.386" x2="48.189" y2="14.5974" gradientUnits="userSpaceOnUse">
<stop stop-color="#737373"/>
<stop offset="1" stop-color="#737373" stop-opacity="0.83"/>
</linearGradient>
</defs>
</svg>
