<svg width="83" height="22" viewBox="0 0 83 22" fill="none" xmlns="http://www.w3.org/2000/svg">
<path d="M72.8026 6.77545C37.499 23.69 15.5892 9.53808 1.56403 0.942508C0.696156 0.400789 -0.778924 1.06916 0.50091 2.54909C5.1734 8.25268 20.4861 22 40.4737 22C60.475 22 72.3739 11.013 73.8624 9.09634C75.3408 7.19593 74.2965 6.14761 72.8023 6.77545H72.8026ZM82.7176 1.26302C81.7695 0.0201682 76.9528 -0.211514 73.9214 0.163367C70.8854 0.52744 66.3283 2.39543 66.7245 3.51703C66.9278 3.93716 67.3428 3.74871 69.4284 3.55992C71.5198 3.34985 77.3785 2.60549 78.5993 4.21208C79.8258 5.8298 76.7307 13.5361 76.1654 14.779C75.6193 16.0218 76.3741 16.3423 77.4 15.5146C78.4118 14.6871 80.2435 12.5442 81.4726 9.51174C82.6934 6.46271 83.4379 2.20934 82.7172 1.26302H82.7176Z" fill="url(#paint0_linear_43_86)"/>
<defs>
<linearGradient id="paint0_linear_43_86" x1="-0.329684" y1="22.0664" x2="32.9233" y2="-31.6005" gradientUnits="userSpaceOnUse">
<stop stop-color="#FFA800"/>
<stop offset="1" stop-color="#FF6600" stop-opacity="0.83"/>
</linearGradient>
</defs>
</svg>
